<svg width="680" height="210" viewBox="0 0 680 210" fill="none" xmlns="http://www.w3.org/2000/svg" role="img" aria-labelledby="title desc">
  <title id="title">Canal Clear logo</title>
  <desc id="desc">A stylized cargo vessel inside orange and navy canal signal arcs with the words Canal Clear and the tagline One Platform, Zero Surprises.</desc>
  <defs>
    <linearGradient id="navy" x1="112" y1="18" x2="112" y2="189" gradientUnits="userSpaceOnUse">
      <stop stop-color="#0F4F75"/>
      <stop offset="1" stop-color="#082F4A"/>
    </linearGradient>
    <linearGradient id="orange" x1="131" y1="6" x2="255" y2="168" gradientUnits="userSpaceOnUse">
      <stop stop-color="#FFB36B"/>
      <stop offset="0.44" stop-color="#F47A21"/>
      <stop offset="1" stop-color="#EA5E00"/>
    </linearGradient>
    <filter id="shadow" x="0" y="0" width="240" height="220" filterUnits="userSpaceOnUse" color-interpolation-filters="sRGB">
      <feDropShadow dx="0" dy="9" stdDeviation="8" flood-color="#092E47" flood-opacity="0.18"/>
    </filter>
  </defs>
  <g filter="url(#shadow)">
    <path d="M91 42C59 67 39 104 39 145c0 18 4 35 11 50" stroke="#0D4568" stroke-width="17" stroke-linecap="round"/>
    <path d="M117 22C74 51 47 97 47 148c0 15 3 30 8 44" stroke="#0D4568" stroke-width="10" stroke-linecap="round" opacity=".95"/>
    <path d="M151 24c25 6 49 19 68 38" stroke="url(#orange)" stroke-width="16" stroke-linecap="round"/>
    <path d="M120 46c27-6 57-1 81 14" stroke="url(#orange)" stroke-width="12" stroke-linecap="round" opacity=".9"/>
    <path d="M87 181c25 17 58 23 89 14" stroke="#0D4568" stroke-width="12" stroke-linecap="round"/>
    <path d="M170 184c25-9 48-25 64-47" stroke="url(#orange)" stroke-width="15" stroke-linecap="round"/>
    <path d="M197 163c19-9 34-24 44-43" stroke="url(#orange)" stroke-width="9" stroke-linecap="round" opacity=".85"/>
    <circle cx="205" cy="83" r="9" fill="#F47A21"/>
    <circle cx="225" cy="70" r="8" fill="#F47A21" opacity=".9"/>
    <circle cx="247" cy="58" r="8" fill="#F47A21" opacity=".9"/>
    <g transform="translate(87 58)">
      <path d="M73 2v20h13v11H45V22h13V2h15z" fill="url(#navy)"/>
      <path d="M21 42h98v28H21V42z" fill="url(#navy)"/>
      <rect x="31" y="50" width="16" height="16" rx="2" fill="#F7FBFF" opacity=".92"/>
      <rect x="53" y="50" width="16" height="16" rx="2" fill="#F7FBFF" opacity=".92"/>
      <rect x="75" y="50" width="16" height="16" rx="2" fill="#F7FBFF" opacity=".92"/>
      <rect x="97" y="50" width="16" height="16" rx="2" fill="#F7FBFF" opacity=".92"/>
      <path d="M8 35h125v14H8l13-14z" fill="url(#navy)"/>
      <path d="M12 77l56-28 58 28-58 82L12 77z" fill="url(#navy)"/>
      <path d="M68 49v109" stroke="#75B8CF" stroke-width="4" opacity=".34"/>
      <path d="M31 84l37-18 38 18" stroke="#F7FBFF" stroke-width="5" stroke-linecap="round" opacity=".86"/>
      <ellipse cx="45" cy="104" rx="5" ry="9" transform="rotate(-25 45 104)" fill="#F7FBFF" opacity=".92"/>
      <ellipse cx="90" cy="104" rx="5" ry="9" transform="rotate(25 90 104)" fill="#F7FBFF" opacity=".92"/>
      <path d="M14 76l54 82 58-82" stroke="#06334F" stroke-width="5" opacity=".42"/>
    </g>
  </g>
  <g>
    <text x="285" y="95" font-family="Inter, Arial, sans-serif" font-size="58" font-weight="900" letter-spacing="3" fill="#0B4366">CANAL</text>
    <text x="502" y="95" font-family="Inter, Arial, sans-serif" font-size="58" font-weight="900" letter-spacing="3" fill="url(#orange)">CLEAR</text>
    <text x="310" y="137" font-family="Inter, Arial, sans-serif" font-size="25" font-weight="800" letter-spacing="2.3" fill="#0B4366">ONE PLATFORM, ZERO SURPRISES</text>
  </g>
</svg>
