<svg xmlns="http://www.w3.org/2000/svg" viewBox="0 0 1200 720" role="img" aria-labelledby="title desc">
  <title id="title">CanalClear cinematic cargo vessel</title>
  <desc id="desc">A clean cinematic cargo vessel in navy, cyan, and orange moving across dark ocean water.</desc>
  <defs>
    <linearGradient id="hull" x1="185" y1="430" x2="980" y2="500" gradientUnits="userSpaceOnUse"><stop stop-color="#0f6b93"/><stop offset=".52" stop-color="#083a5a"/><stop offset="1" stop-color="#031421"/></linearGradient>
    <linearGradient id="deck" x1="560" y1="210" x2="930" y2="310" gradientUnits="userSpaceOnUse"><stop stop-color="#fff"/><stop offset=".72" stop-color="#bcebf4"/><stop offset="1" stop-color="#5aaac3"/></linearGradient>
    <linearGradient id="orange" x1="660" y1="195" x2="970" y2="300" gradientUnits="userSpaceOnUse"><stop stop-color="#ffb26b"/><stop offset="1" stop-color="#f47721"/></linearGradient>
    <linearGradient id="sea" x1="0" y1="0" x2="1" y2="1"><stop stop-color="#0a5677"/><stop offset=".55" stop-color="#072b44"/><stop offset="1" stop-color="#020914"/></linearGradient>
    <filter id="shadow"><feDropShadow dx="0" dy="28" stdDeviation="22" flood-color="#020914" flood-opacity=".55"/></filter>
    <filter id="soft"><feGaussianBlur stdDeviation="7"/></filter>
  </defs>
  <rect width="1200" height="720" fill="transparent"/>
  <g opacity=".55"><path d="M-60 515c158-50 284-21 430-43 184-27 310-106 510-82 124 15 226 53 380 20v310H-60z" fill="url(#sea)"/><path d="M0 548c170-34 314 4 474-23 174-30 305-79 490-42 91 18 162 27 236 12" fill="none" stroke="#8de9f6" stroke-width="3" opacity=".25"/></g>
  <g filter="url(#shadow)">
    <g transform="translate(105 58)">
      <path d="M83 421c164-78 380-110 644-72 123 18 230 57 343 126-148 84-341 123-564 111-181-10-330-55-423-165z" fill="url(#hull)"/>
      <path d="M170 480c188 53 396 74 650 49 84-8 164-25 240-51-145 90-333 133-557 118-165-11-276-43-333-116z" fill="#020914" opacity=".55"/>
      <path d="M119 421c158-37 350-58 571-32 127 15 251 46 350 91" fill="none" stroke="#f47721" stroke-width="13" stroke-linecap="round" opacity=".9"/>
      <path d="M700 331c134 21 254 73 364 143-80 34-154 56-226 66 12-82-39-152-138-209z" fill="#031421" opacity=".86"/>
      <g transform="translate(590 136)">
        <path d="M32 163l76-97 254 25 87 118c-128 43-289 29-417-46z" fill="url(#deck)"/>
        <path d="M90 66L184 15l135 18 68 71c-105 19-209 5-297-38z" fill="url(#orange)"/>
        <path d="M33 163c126 69 282 83 430 40l-25 47c-143 47-293 29-432-49z" fill="#02101d"/>
        <path d="M54 183c126 54 257 68 397 32" fill="none" stroke="#f47721" stroke-width="8" stroke-linecap="round"/>
        <rect x="224" y="-52" width="22" height="82" rx="5" fill="#dff8ff"/><rect x="275" y="-72" width="18" height="103" rx="5" fill="#dff8ff"/><path d="M236-52l-54-66M286-70l70-88M291-6h80" stroke="#dff8ff" stroke-width="7" stroke-linecap="round"/>
      </g>
      <g opacity=".96">
        <rect x="238" y="290" width="82" height="58" rx="7" fill="#0f5f88"/><rect x="330" y="274" width="92" height="74" rx="7" fill="#0a3655"/><rect x="433" y="252" width="105" height="96" rx="8" fill="#14698f"/><rect x="550" y="287" width="95" height="61" rx="7" fill="#062a43"/><rect x="656" y="269" width="96" height="79" rx="8" fill="#f47721"/><rect x="348" y="210" width="98" height="64" rx="7" fill="#0f577c"/><rect x="458" y="190" width="108" height="82" rx="8" fill="#0d4568"/><rect x="578" y="214" width="99" height="58" rx="7" fill="#f47721"/></g>
      <g fill="#ffd0aa" opacity=".9"><circle cx="200" cy="438" r="6"/><circle cx="265" cy="454" r="6"/><circle cx="330" cy="468" r="6"/><circle cx="395" cy="480" r="6"/><circle cx="460" cy="489" r="6"/></g>
    </g>
  </g>
  <g opacity=".75" filter="url(#soft)"><path d="M60 604c154-67 315-58 476 4-207 63-366 54-476-4z" fill="#eaf8fb" opacity=".66"/><path d="M540 597c180-58 345-42 545 29-223 56-396 46-545-29z" fill="#9de8f3" opacity=".38"/><path d="M95 555c136-33 263-18 383 45" stroke="#fff" stroke-width="9" opacity=".44" fill="none" stroke-linecap="round"/><path d="M610 560c126-28 262-16 410 46" stroke="#8de9f6" stroke-width="8" opacity=".32" fill="none" stroke-linecap="round"/></g>
</svg>